<svg xmlns="http://www.w3.org/2000/svg" viewBox="0 0 400 400" width="400" height="400">
  <!-- Background circle for glow effect -->
  <circle cx="200" cy="200" r="180" fill="none" stroke="none"/>
  
  <!-- Main brain with AI circuits (left side) -->
  <g transform="translate(120, 150)">
    <!-- Brain outline -->
    <path d="M0,50 C0,20 20,0 50,0 C80,0 100,20 100,50 C100,80 100,100 90,120 C80,140 60,150 40,150 C20,150 0,130 0,100 Z" 
          fill="#3B82F6" stroke="#1E40AF" stroke-width="3"/>
    
    <!-- Circuit patterns -->
    <circle cx="25" cy="30" r="4" fill="#60A5FA"/>
    <circle cx="45" cy="20" r="3" fill="#60A5FA"/>
    <circle cx="65" cy="35" r="4" fill="#60A5FA"/>
    <circle cx="35" cy="55" r="3" fill="#60A5FA"/>
    <circle cx="55" cy="70" r="4" fill="#60A5FA"/>
    <circle cx="75" cy="55" r="3" fill="#60A5FA"/>
    
    <!-- Connecting lines -->
    <line x1="25" y1="30" x2="35" y2="55" stroke="#60A5FA" stroke-width="2"/>
    <line x1="45" y1="20" x2="65" y2="35" stroke="#60A5FA" stroke-width="2"/>
    <line x1="35" y1="55" x2="55" y2="70" stroke="#60A5FA" stroke-width="2"/>
    <line x1="65" y1="35" x2="75" y2="55" stroke="#60A5FA" stroke-width="2"/>
  </g>
  
  <!-- Natural brain with organic patterns (right side) -->
  <g transform="translate(200, 150)">
    <!-- Brain outline -->
    <path d="M0,50 C0,20 20,0 50,0 C80,0 100,20 100,50 C100,80 100,100 90,120 C80,140 60,150 40,150 C20,150 0,130 0,100 Z" 
          fill="#10B981" stroke="#059669" stroke-width="3"/>
    
    <!-- Organic patterns -->
    <path d="M20,25 Q30,20 40,25 Q50,30 60,25 Q70,20 80,25" 
          fill="none" stroke="#34D399" stroke-width="2"/>
    <path d="M15,45 Q25,40 35,45 Q45,50 55,45 Q65,40 75,45" 
          fill="none" stroke="#34D399" stroke-width="2"/>
    <path d="M20,65 Q30,60 40,65 Q50,70 60,65 Q70,60 80,65" 
          fill="none" stroke="#34D399" stroke-width="2"/>
    
    <!-- Small circles for nodes -->
    <circle cx="30" cy="35" r="2" fill="#34D399"/>
    <circle cx="50" cy="30" r="2" fill="#34D399"/>
    <circle cx="70" cy="35" r="2" fill="#34D399"/>
  </g>
  
  <!-- Caring hands -->
  <g transform="translate(160, 220)">
    <!-- Hand 1 -->
    <path d="M10,30 C5,25 5,15 15,10 C25,5 35,10 40,20 C45,30 40,40 30,45 C20,50 10,45 10,30 Z" 
          fill="#F59E0B" stroke="#D97706" stroke-width="2"/>
    
    <!-- Hand 2 -->
    <path d="M50,35 C45,30 45,20 55,15 C65,10 75,15 80,25 C85,35 80,45 70,50 C60,55 50,50 50,35 Z" 
          fill="#06B6D4" stroke="#0891B2" stroke-width="2"/>
  </g>
  
  <!-- Growth leaf -->
  <g transform="translate(240, 120)">
    <path d="M0,40 Q10,20 30,10 Q50,0 70,10 Q60,30 40,40 Q20,50 0,40 Z" 
          fill="#22C55E" stroke="#16A34A" stroke-width="2"/>
    <line x1="35" y1="25" x2="35" y2="40" stroke="#16A34A" stroke-width="1"/>
  </g>
  
  <!-- Stem with small leaves -->
  <g transform="translate(200, 280)">
    <line x1="0" y1="0" x2="0" y2="60" stroke="#16A34A" stroke-width="4"/>
    
    <!-- Small leaves -->
    <path d="M-5,20 Q-15,15 -10,5 Q-5,10 0,15 Z" fill="#22C55E"/>
    <path d="M5,35 Q15,30 10,20 Q5,25 0,30 Z" fill="#22C55E"/>
  </g>
</svg>